<svg xmlns="http://www.w3.org/2000/svg" viewBox="0 0 512 512"><defs><linearGradient id="bg" x1="0" y1="0" x2="1" y2="1"> <stop offset="0" stop-color="#5568ee"/><stop offset="1" stop-color="#3342c4"/></linearGradient></defs> <rect width="512" height="512" rx="0" fill="url(#bg)"/> <g transform="translate(256 256) scale(0.88) translate(-265 -242)"> <g transform="rotate(-14 256 262)"> <path d="M256 180 C256 116 336 84 382 112" fill="none" stroke="#ffb547" stroke-width="13" stroke-linecap="round"/> <mask id="hole"><rect width="512" height="512" fill="#fff"/><circle cx="256" cy="180" r="18" fill="#000"/></mask> <path mask="url(#hole)" d="M166 204 L214 132 L298 132 L346 204 L346 380 Q346 400 326 400 L186 400 Q166 400 166 380 Z" fill="#fff" stroke="#fff" stroke-width="20" stroke-linejoin="round"/> <rect x="198" y="232" width="116" height="17" rx="8.5" fill="#cdd3f7"/> <rect x="198" y="266" width="78" height="17" rx="8.5" fill="#cdd3f7"/> <line x1="202" y1="310" x2="312" y2="310" stroke="#cdd3f7" stroke-width="6" stroke-linecap="round" stroke-dasharray="1 14"/> <rect x="198" y="330" width="54" height="34" rx="17" fill="#4355db"/> <rect x="260" y="330" width="54" height="34" rx="17" fill="#ffb547"/> </g></g> </svg>
